<?xml version="1.0" encoding="UTF-8" standalone="no"?>
<svg
   xmlns:dc="http://purl.org/dc/elements/1.1/"
   xmlns:cc="http://creativecommons.org/ns#"
   xmlns:rdf="http://www.w3.org/1999/02/22-rdf-syntax-ns#"
   xmlns:svg="http://www.w3.org/2000/svg"
   xmlns="http://www.w3.org/2000/svg"
   xmlns:sodipodi="http://sodipodi.sourceforge.net/DTD/sodipodi-0.dtd"
   xmlns:inkscape="http://www.inkscape.org/namespaces/inkscape"
   width="48"
   height="48"
   viewBox="0 0 48 48"
   version="1.1"
   id="svg4"
   sodipodi:docname="github.svg"
   style="fill:none"
   inkscape:version="0.92.4 (5da689c313, 2019-01-14)">
  <metadata
     id="metadata10">
    <rdf:RDF>
      <cc:Work
         rdf:about="">
        <dc:format>image/svg+xml</dc:format>
        <dc:type
           rdf:resource="http://purl.org/dc/dcmitype/StillImage" />
        <dc:title></dc:title>
      </cc:Work>
    </rdf:RDF>
  </metadata>
  <defs
     id="defs8" />
  <sodipodi:namedview
     pagecolor="#ffffff"
     bordercolor="#666666"
     borderopacity="1"
     objecttolerance="10"
     gridtolerance="10"
     guidetolerance="10"
     inkscape:pageopacity="0"
     inkscape:pageshadow="2"
     inkscape:window-width="1920"
     inkscape:window-height="1016"
     id="namedview6"
     showgrid="false"
     inkscape:zoom="3.9377747"
     inkscape:cx="-0.25395054"
     inkscape:cy="-28.484786"
     inkscape:window-x="0"
     inkscape:window-y="27"
     inkscape:window-maximized="1"
     inkscape:current-layer="svg4" />
  <path
     d="m 24,2.5425017 c -12.15513,0 -22.00024,9.8451103 -22.00024,22.0002403 0,9.73511 6.29757,17.9577 15.04266,20.87273 1.10002,0.1925 1.51252,-0.4675 1.51252,-1.04501 0,-0.52251 -0.0275,-2.25503 -0.0275,-4.09755 -5.52756,1.01752 -6.95758,-1.34751 -7.39758,-2.58502 -0.2475,-0.63251 -1.32002,-2.58503 -2.25503,-3.10754 -0.77001,-0.4125 -1.87002,-1.43001 -0.0275,-1.45751 1.73252,-0.0275 2.97004,1.59501 3.38254,2.25502 1.98002,3.32754 5.14256,2.39253 6.40757,1.81502 0.1925,-1.43002 0.77001,-2.39253 1.40252,-2.94253 -4.89506,-0.55001 -10.01011,-2.44753 -10.01011,-10.86262 0,-2.39253 0.85251,-4.37255 2.25502,-5.91257 -0.22,-0.55 -0.99001,-2.80503 0.22,-5.83006 0,0 1.84252,-0.57751 6.05007,2.25502 1.76002,-0.495 3.63004,-0.7425 5.50006,-0.7425 1.87002,0 3.74004,0.2475 5.50006,0.7425 4.20755,-2.86003 6.05007,-2.25502 6.05007,-2.25502 1.21001,3.02503 0.44,5.28006 0.22,5.83006 1.40252,1.54002 2.25503,3.49254 2.25503,5.91257 0,8.44259 -5.14256,10.31261 -10.03762,10.86262 0.79751,0.68751 1.48502,2.00752 1.48502,4.07004 0,2.94253 -0.0275,5.30756 -0.0275,6.05007 0,0.57751 0.41251,1.26501 1.51252,1.04501 8.69009,-2.91503 14.98766,-11.16512 14.98766,-20.87273 C 46.00024,12.387612 36.15513,2.5425017 24,2.5425017 Z"
     id="path2"
     inkscape:connector-curvature="0"
     style="clip-rule:evenodd;fill:#1b1f23;fill-rule:evenodd;stroke-width:2.75003028" />
</svg>
